<?xml version="1.0" standalone="no"?>
<!DOCTYPE svg PUBLIC "-//W3C//DTD SVG 20010904//EN"
 "http://www.w3.org/TR/2001/REC-SVG-20010904/DTD/svg10.dtd">
<svg version="1.0" xmlns="http://www.w3.org/2000/svg"
 width="288.000000pt" height="288.000000pt" viewBox="0 0 288.000000 288.000000"
 preserveAspectRatio="xMidYMid meet">
<metadata>
Created by potrace 1.11, written by Peter Selinger 2001-2013
</metadata>
<g transform="translate(0.000000,288.000000) scale(0.100000,-0.100000)"
fill="#000000" stroke="none">
<path d="M1295 2869 c-353 -41 -640 -281 -754 -629 -12 -36 -24 -78 -26 -95
-3 -16 -10 -48 -16 -70 -11 -42 -8 -274 5 -335 9 -43 53 -181 64 -197 6 -9 39
7 117 57 61 39 117 73 125 77 8 4 33 19 55 34 l40 27 1 174 c1 171 2 186 25
257 54 166 198 297 366 332 78 16 213 7 292 -20 223 -76 343 -293 328 -590 -9
-158 -11 -171 -65 -279 -62 -127 -175 -217 -311 -248 -33 -8 -98 -12 -163 -10
l-108 4 20 -32 c11 -17 44 -69 73 -114 28 -46 80 -126 115 -179 34 -52 62 -97
62 -101 0 -3 15 -28 33 -56 17 -27 37 -58 42 -67 6 -9 19 -29 29 -45 10 -16
33 -50 50 -76 51 -78 92 -95 348 -143 76 -15 151 -30 169 -35 38 -11 37 -7
-24 87 -96 148 -297 475 -297 483 0 4 23 23 51 41 165 105 258 208 338 374 80
163 100 251 106 465 3 93 -1 132 -19 207 -24 96 -84 232 -137 309 -50 73 -173
189 -254 239 -190 119 -458 179 -680 154z"/>
<path d="M2077 446 c-92 -34 -160 -127 -156 -214 4 -90 49 -163 128 -205 151
-83 343 36 343 211 0 144 -176 260 -315 208z"/>
</g>
</svg>
