<?xml version="1.0" encoding="utf-8"?>
<!-- Generator: Adobe Illustrator 22.1.0, SVG Export Plug-In . SVG Version: 6.00 Build 0)  -->
<svg version="1.1" id="Calque_1" xmlns="http://www.w3.org/2000/svg" xmlns:xlink="http://www.w3.org/1999/xlink" x="0px" y="0px"
	 viewBox="0 0 1200 580" style="enable-background:new 0 0 1200 580;" xml:space="preserve">
<style type="text/css">
	.st0{fill:#FFFA72;}
	.st1{fill:url(#SVGID_1_);}
	.st2{fill:url(#SVGID_2_);}
	.st3{fill:url(#SVGID_3_);}
	.st4{fill:url(#SVGID_4_);}
	.st5{fill:url(#SVGID_5_);}
	.st6{fill:url(#SVGID_6_);}
	.st7{fill:url(#SVGID_7_);}
	.st8{fill:url(#SVGID_8_);}
</style>
<path class="st0" d="M734.6,34.4c-28.7,61.7-23.3,100.4,16.3,116.1c59.3,23.5,200.3,32.9,259.3,83.9s238.7,11.6,269.4-75.9
	C1310.3,70.9,1365.7-64,1073.8-64C879.2-64,766.2-31.2,734.6,34.4L734.6,34.4z"/>
<linearGradient id="SVGID_1_" gradientUnits="userSpaceOnUse" x1="1329.7975" y1="-133.9956" x2="913.0381" y2="587.8528" gradientTransform="matrix(1 0 0 1 0 -15.3858)">
	<stop  offset="0" style="stop-color:#F0522F"/>
	<stop  offset="0.5491" style="stop-color:#F05530"/>
	<stop  offset="1" style="stop-color:#FCB04F"/>
</linearGradient>
<path class="st1" d="M443.6,115.6C429.9,251.4,472.8,336.5,572.3,371c149.3,51.7,467.1,72.4,637.6,184.6s534.4,25.5,531.9-167.1
	c-2.5-192.5,11.3-489.3-630.8-489.3C683.1-100.8,460.5-28.7,443.6,115.6L443.6,115.6z"/>
<linearGradient id="SVGID_2_" gradientUnits="userSpaceOnUse" x1="1300.4316" y1="-131.5426" x2="907.8524" y2="548.4245" gradientTransform="matrix(1 0 0 1 0 -15.3858)">
	<stop  offset="0" style="stop-color:#F0522F"/>
	<stop  offset="0.5491" style="stop-color:#F05530"/>
	<stop  offset="1" style="stop-color:#FCB04F"/>
</linearGradient>
<path class="st2" d="M478.1,105.5c-18.9,126.5,17.2,205.9,108.4,238c136.8,48.2,432,67.5,585.8,172s496.8,23.7,503.3-155.7
	c6.4-179.4,32.7-456-565.6-456C711.1-96.2,500.4-29,478.1,105.5L478.1,105.5z"/>
<linearGradient id="SVGID_3_" gradientUnits="userSpaceOnUse" x1="1272.1714" y1="-128.1752" x2="904.533" y2="508.5932" gradientTransform="matrix(1 0 0 1 0 -15.3858)">
	<stop  offset="0" style="stop-color:#F0522F"/>
	<stop  offset="0.5491" style="stop-color:#F05530"/>
	<stop  offset="1" style="stop-color:#FCB04F"/>
</linearGradient>
<path class="st3" d="M513.2,95.3c-23.1,117.3,6.9,190.8,90,220.6c124.7,44.7,397.4,62.5,535.4,159.4s459.4,22,473.3-144.3
	c13.8-166.3,50.3-422.6-504.2-422.6C738-91.6,539.8-29.3,513.2,95.3L513.2,95.3z"/>
<linearGradient id="SVGID_4_" gradientUnits="userSpaceOnUse" x1="1245.0493" y1="-123.9388" x2="902.96" y2="468.5774" gradientTransform="matrix(1 0 0 1 0 -15.3858)">
	<stop  offset="0" style="stop-color:#F0522F"/>
	<stop  offset="0.5491" style="stop-color:#F05530"/>
	<stop  offset="1" style="stop-color:#FCB04F"/>
</linearGradient>
<path class="st4" d="M548.8,85.2c-26.3,108-1.8,175.7,73.5,203.2c112.9,41.1,363.4,57.6,486.3,146.8s422.2,20.3,442.1-132.9
	C1570.6,149.1,1615.1-87,1104.3-87C763.8-87,578.7-29.6,548.8,85.2L548.8,85.2z"/>
<linearGradient id="SVGID_5_" gradientUnits="userSpaceOnUse" x1="1219.0806" y1="-118.9048" x2="903.1973" y2="428.221" gradientTransform="matrix(1 0 0 1 0 -15.3858)">
	<stop  offset="0" style="stop-color:#F0522F"/>
	<stop  offset="0.5491" style="stop-color:#F05530"/>
	<stop  offset="1" style="stop-color:#FCB04F"/>
</linearGradient>
<path class="st5" d="M585,75c-28.5,98.8-8.9,160.7,58.8,185.8c101.5,37.6,329.8,52.7,438.6,134.2c108.7,81.6,385.2,18.5,409.7-121.5
	s75-355.9-392-355.9C788.7-82.4,617-29.9,585,75L585,75z"/>
<linearGradient id="SVGID_6_" gradientUnits="userSpaceOnUse" x1="1194.0951" y1="-113.0928" x2="905.0695" y2="387.5143" gradientTransform="matrix(1 0 0 1 0 -15.3858)">
	<stop  offset="0" style="stop-color:#F0522F"/>
	<stop  offset="0.5491" style="stop-color:#F05530"/>
	<stop  offset="1" style="stop-color:#FCB04F"/>
</linearGradient>
<path class="st6" d="M621.7,64.8c-29.8,89.5-14.6,145.6,45.8,168.3c90.5,34.1,296.8,47.7,392,121.7
	c95.2,73.9,348.3,16.8,376.2-110.1c27.9-126.9,82.4-322.5-340.8-322.5C812.7-77.8,655-30.3,621.7,64.8L621.7,64.8z"/>
<linearGradient id="SVGID_7_" gradientUnits="userSpaceOnUse" x1="1169.9651" y1="-106.3719" x2="908.3836" y2="346.7005" gradientTransform="matrix(1 0 0 1 0 -15.3858)">
	<stop  offset="0" style="stop-color:#F0522F"/>
	<stop  offset="0.5491" style="stop-color:#F05530"/>
	<stop  offset="1" style="stop-color:#FCB04F"/>
</linearGradient>
<path class="st7" d="M658.8,54.7c-30.3,80.2-18.8,130.5,34.4,150.9c79.8,30.6,264.2,42.8,346.6,109.1s311.6,15,341.6-98.7
	c30-113.8,86.6-289.1-292.8-289.1C835.7-73.2,692.5-30.6,658.8,54.7L658.8,54.7z"/>
<linearGradient id="SVGID_8_" gradientUnits="userSpaceOnUse" x1="1146.958" y1="-99.0799" x2="913.3227" y2="305.5882" gradientTransform="matrix(1 0 0 1 0 -15.3858)">
	<stop  offset="0" style="stop-color:#F0522F"/>
	<stop  offset="0.5491" style="stop-color:#F05530"/>
	<stop  offset="1" style="stop-color:#FCB04F"/>
</linearGradient>
<path class="st8" d="M696.5,44.5C666.6,115.5,674.8,160,721,178c69.4,27,232.1,37.8,302.4,96.5c70.4,58.6,275.1,13.3,306-87.3
	c31-100.7,87.8-255.8-247.8-255.8C857.9-68.6,729.5-30.9,696.5,44.5L696.5,44.5z"/>
</svg>
