<svg id="logo" data-name="Calque 1" xmlns="http://www.w3.org/2000/svg" xmlns:xlink="http://www.w3.org/1999/xlink" viewBox="0 0 841.89 595.28"><defs><style>.cls-1{fill:url(#Nouvelle_nuance_de_dégradé_1_2);}.cls-2{fill:url(#Nouvelle_nuance_de_dégradé_1_2-2);}.cls-3{fill:url(#Nouvelle_nuance_de_dégradé_1_2-3);}.cls-4{fill:url(#Nouvelle_nuance_de_dégradé_1);}.cls-5{fill:url(#Nouvelle_nuance_de_dégradé_1-2);}.cls-6{fill:url(#Nouvelle_nuance_de_dégradé_1-3);}.cls-7{fill:url(#Nouvelle_nuance_de_dégradé_1-4);}.cls-8{fill:url(#Nouvelle_nuance_de_dégradé_1-5);}.cls-9{fill:url(#Nouvelle_nuance_de_dégradé_1-6);}.cls-10{fill:url(#Nouvelle_nuance_de_dégradé_1_2-4);}.cls-11{fill:#2d2828;}</style><linearGradient id="Nouvelle_nuance_de_dégradé_1_2" x1="593.38" y1="230.05" x2="696.1" y2="230.05" gradientUnits="userSpaceOnUse"><stop offset="0" stop-color="#f8dfcb"/><stop offset="1" stop-color="#fffadb"/></linearGradient><linearGradient id="Nouvelle_nuance_de_dégradé_1_2-2" x1="145.1" y1="270.62" x2="145.1" y2="155.7" xlink:href="#Nouvelle_nuance_de_dégradé_1_2"/><linearGradient id="Nouvelle_nuance_de_dégradé_1_2-3" x1="534.95" y1="76.64" x2="566.79" y2="76.64" xlink:href="#Nouvelle_nuance_de_dégradé_1_2"/><linearGradient id="Nouvelle_nuance_de_dégradé_1" x1="500.06" y1="547.58" x2="500.06" y2="50.22" gradientUnits="userSpaceOnUse"><stop offset="0" stop-color="#f0522f"/><stop offset="1" stop-color="#fcb04f"/></linearGradient><linearGradient id="Nouvelle_nuance_de_dégradé_1-2" x1="206.3" y1="535.91" x2="206.3" y2="243.53" xlink:href="#Nouvelle_nuance_de_dégradé_1"/><linearGradient id="Nouvelle_nuance_de_dégradé_1-3" x1="512.7" y1="85.12" x2="547.35" y2="85.12" xlink:href="#Nouvelle_nuance_de_dégradé_1"/><linearGradient id="Nouvelle_nuance_de_dégradé_1-4" x1="436.54" y1="501.32" x2="526.57" y2="501.32" xlink:href="#Nouvelle_nuance_de_dégradé_1"/><linearGradient id="Nouvelle_nuance_de_dégradé_1-5" x1="599.11" y1="463.5" x2="641.66" y2="463.5" xlink:href="#Nouvelle_nuance_de_dégradé_1"/><linearGradient id="Nouvelle_nuance_de_dégradé_1-6" x1="533.33" y1="54.26" x2="558.92" y2="54.26" xlink:href="#Nouvelle_nuance_de_dégradé_1"/><linearGradient id="Nouvelle_nuance_de_dégradé_1_2-4" x1="552.47" y1="65.53" x2="579.88" y2="65.53" xlink:href="#Nouvelle_nuance_de_dégradé_1_2"/></defs><title>Plan de travail 1</title><path class="cls-1" d="M679.8,71.59c-1.11,6.14-.94,11.47-3,15.64-7.8,15.45-15.29,31.23-24.94,45.5C643.54,145,642.75,156.8,649,168.8c5.32,10.23,11.75,20.42,19.75,28.63,33.69,34.63,34,77.2,13.29,116.48-15.82,30-39.83,53.07-66.19,73.82a7.52,7.52,0,0,1-2.27.77c-10-15.39-10.43-26.05-.06-40.08,6.06-8.19,13.71-15.18,20.43-22.89,27.38-31.43,33.95-67.41,21.71-106.68-5.52-17.69-18.58-27.46-37.54-28.42a45.51,45.51,0,0,1-5.11-.34c-7.63-1.31-16.26-2.19-18.86-10.8-2.66-8.77,2.05-17.07,8.57-21.78,31.09-22.49,53.95-52,74.15-83.92C677.12,73.18,677.72,73,679.8,71.59Z"/><path class="cls-2" d="M83.06,242.88c6.11-15.24,13.13-28.78,16.85-43.17,3.6-13.94,3.79-28.75,5.57-44,3.52,1.24,8.28,2.77,12.93,4.57,23,8.87,44.65,20,62.53,37.34,13.62,13.22,22.63,28.94,25.91,47.91,1,5.56-.37,9.08-4.66,12.49-20.33,16.18-41.37,16.84-62.63,1.66-3.47-2.48-6.8-5.16-10.31-7.58C115.46,242.59,100.88,236.51,83.06,242.88Z"/><path class="cls-3" d="M552.3,99.23C540.27,86.39,537.16,70.7,535,54l28.38,33.78,3.46-1.94Z"/><path class="cls-4" d="M428.35,431c3.39,2.66,6.75,5.35,10.18,8,31.65,24.05,31.73,48.07.22,72.46-3.69,2.85-7.45,5.61-11.17,8.41l.82,2.18c2.93.18,5.86.52,8.79.52,19.07.05,38.13,0,57.19.05,8.89,0,19.46,6.12,20.26,11.47.73,4.84-7,10.48-17.51,12.29a69.3,69.3,0,0,1-11.89.66c-30.16,0-60.42,1.5-90.46-.4-28.42-1.79-51.72-15.46-65.55-41.27-8.21-15.31-6.42-32.12-1.5-48.27,9.66-31.7,27.9-58.74,50-82.55,21.43-23,45.91-43.19,68.1-65.56,9-9.11,16.33-20.25,23-31.34,6-9.94,12.16-17.73,23.26-23.38,28.26-14.4,46.67-37.3,47.55-70.4.2-7.87-3.88-16.39-7.67-23.75-11.32-22-11.71-21.88,5.35-39.68,8.85-9.23,17.27-19.08,27.15-27.08,18.39-14.88,39.14-24,63.76-21,2.59.31,6-1.39,8.17-3.17a214.16,214.16,0,0,0,16.49-14.82c3.8-3.76,7.12-5.84,12.5-2.39,2.64,1.7,8.79.69,9.37,2.32,1.51,4.26,2.75,10.44.72,13.84-19.25,32.15-41.33,62.05-72.3,84.21a22.89,22.89,0,0,0-3.92,3.28c-6.24,7.06-11.08,15.08-8.62,24.73,2.41,9.47,11.21,11.14,19.42,12.82,1.68.34,3.38,1.1,5,1,24.56-2,38.82,18.4,41.63,42.92,4.17,36.34-4.93,68.14-32.71,93.43-4.39,4-8.12,8.77-11.85,13.42-10.06,12.6-13.2,25.88-5.28,41.18,2.19,4.24,2,10.4,1.17,15.38-3.7,21.52-10,42.8-11.54,64.43-1.14,16,3.31,32.48,5.78,48.66,1,6.38,5.25,9.86,12.23,9,1.67-.2,3.92-.49,5,.38,4.51,3.58,8.67,7.58,13,11.43-3.59,3.24-6.72,7.37-10.87,9.55-10.37,5.45-20,2.85-27.92-5.29-11.25-11.51-18.87-24.94-19.51-41.44-1.35-34.65-2.52-69.3-3.79-103.95,0-.79-.46-1.57-1.18-3.83-1.27,2.62-2.32,4.07-2.67,5.68a36.67,36.67,0,0,0-.3,5.95c-.37,9,2.44,20.41-2,26.4s-16.22,6.6-24.73,9.72c-24.74,9.11-49.45,18.3-74.82,27.7-6.62-15.7-19.6-26.78-34.51-35.89Zm184.1-327c9.85,0,18.3-6.27,17.36-12.15-.37-2.28-4.66-5.22-7.45-5.56-7.18-.88-15.29,6.3-14.3,12.44C608.44,101.08,611.62,103,612.45,104Z"/><path class="cls-5" d="M209.28,260.17c0,17.26-.6,34.55.14,51.78,1.13,26.41,2.84,52.81,12.55,77.9,16.5,42.67,47.39,66.87,92.69,73.06,2.37.33,6.27,3.39,6.27,5.19.08,35.42,0,35.43,22.64,62.18-9.65,1.57-18.32,3.56-27.1,4.31-43.74,3.73-86.35.36-126.09-20.72-46.3-24.57-77-62.92-97.86-110a274.22,274.22,0,0,1-23.46-105c-.28-11,1.32-22.14,3.27-33,3.12-17.45,16.92-26.3,33.92-20.51,10.51,3.58,20.42,9.82,29.56,16.33,23.3,16.6,43.39,17.14,66.73.53,1.15-.81,2.26-1.66,3.39-2.5Z"/><path class="cls-6" d="M521.36,132c-11.56-19.49-11.72-79.39.58-93.83,2.53,4.91,5.57,8.9,6.73,13.38,4.25,16.5,7.52,33.26,18.09,47.39,1,1.33.67,5.06-.5,6.38C538.37,114.24,530.09,122.78,521.36,132Z"/><path class="cls-7" d="M520.21,534.2c-8.21-13.55-20.67-16.07-34.82-15.62-15.58.51-31.18.12-48.85.12,3-2.88,4.64-4.57,6.42-6,12.25-9.95,21.81-21.45,23.59-38,.23-2.22,3.06-4.16,4.69-6.23,1.72,1.63,4,2.94,5.06,4.93,5.41,10.54,2.14,21.91-8.84,31.73-2.42,2.16-5,4.19-6.72,8.34,4.06.19,8.12.51,12.19.54,11.36.08,22.75-.42,34.08.27a29.06,29.06,0,0,1,14,4.8C528.7,524.29,528.39,526.7,520.21,534.2Z"/><path class="cls-8" d="M617.56,392.33c-3.17,15.48-6.84,30.89-9.41,46.47-3.69,22.35-3.77,44.63,3.83,66.44,2.35,6.73,5.55,10.33,13.73,11.09,5.53.52,11,6,15.55,10.21,1.25,1.16-.72,5.82-2.24,8.84-6.59-10.34-14.26-16.75-26.5-17.15-2.5-.08-6-4-7.1-6.93-6.61-16.79-7.46-34.59-5.15-52.05,2.6-19.61,7.43-38.94,11.57-58.34.7-3.25,2.84-6.2,4.31-9.29Z"/><path class="cls-9" d="M558.92,76.21c-9.58-10.74-18.37-19.14-25-29-2-2.92,1.94-9.88,3.46-14.9,0-.13,4.52.17,5.33,1.35a48.82,48.82,0,0,1,5,10.56C551.26,54,554.59,63.81,558.92,76.21Z"/><path class="cls-10" d="M555.08,48.94c8.31,9.79,16.63,19.57,24.8,29.2-6.6,5.73-9.59,5.85-15.36-3.47-4.72-7.63-8.09-16.1-12-24.2Z"/><path d="M626.4,91.16c-2.25,6.91-6.35,10-13.72,7.82C614.37,90.61,618,88.53,626.4,91.16Z"/><path class="cls-11" d="M660,48.2c6.51-.75,6.64,2.35,8.83,2.79a14,14,0,0,0,5.9.22s-3.46-11.14-6.52-11.39S661.81,45.61,660,48.2Z"/></svg>
