<svg id="Calque_1" data-name="Calque 1" xmlns="http://www.w3.org/2000/svg" xmlns:xlink="http://www.w3.org/1999/xlink" viewBox="0 0 203.95 78.94"><defs><style>.cls-1{fill:url(#Dégradé_sans_nom_23);}.cls-2{fill:url(#Dégradé_sans_nom_23-2);}.cls-3{fill:url(#Dégradé_sans_nom_23-3);}.cls-4{fill:url(#Dégradé_sans_nom_23-4);}.cls-5{fill:url(#Dégradé_sans_nom_23-5);}.cls-6{fill:url(#Dégradé_sans_nom_23-6);}.cls-7{fill:url(#Dégradé_sans_nom_23-7);}.cls-8{fill:#fff;}</style><linearGradient id="Dégradé_sans_nom_23" x1="60.03" y1="55.08" x2="17.16" y2="12.21" gradientUnits="userSpaceOnUse"><stop offset="0" stop-color="#662483"/><stop offset="0.62" stop-color="#2d2e83"/></linearGradient><linearGradient id="Dégradé_sans_nom_23-2" x1="90.65" y1="45.2" x2="60.99" y2="15.55" xlink:href="#Dégradé_sans_nom_23"/><linearGradient id="Dégradé_sans_nom_23-3" x1="113.73" y1="38.92" x2="87.73" y2="12.92" xlink:href="#Dégradé_sans_nom_23"/><linearGradient id="Dégradé_sans_nom_23-4" x1="137.45" y1="45.62" x2="110.02" y2="18.18" xlink:href="#Dégradé_sans_nom_23"/><linearGradient id="Dégradé_sans_nom_23-5" x1="166.07" y1="45.62" x2="138.63" y2="18.18" xlink:href="#Dégradé_sans_nom_23"/><linearGradient id="Dégradé_sans_nom_23-6" x1="194" y1="44.56" x2="166.06" y2="16.61" xlink:href="#Dégradé_sans_nom_23"/><linearGradient id="Dégradé_sans_nom_23-7" x1="54.43" y1="73.26" x2="46.64" y2="65.47" xlink:href="#Dégradé_sans_nom_23"/></defs><title>Plan de travail 1</title><path class="cls-1" d="M55.68,32.63a24.46,24.46,0,0,1-1.59,5.21,22.57,22.57,0,0,1-2.56,4.48A20.86,20.86,0,0,1,48.09,46a20.1,20.1,0,0,1-4.22,2.71l8.62,13.94L44.3,61.07a11.63,11.63,0,0,1-3.13-1,5.47,5.47,0,0,1-2.24-2.21l-4.2-7c-.9,0-1.8,0-2.72-.09a25,25,0,0,1-2.78-.38A24.43,24.43,0,0,1,20.41,47,20.87,20.87,0,0,1,11,33.14a23.55,23.55,0,0,1,0-9,23.43,23.43,0,0,1,3.25-8.36,21.07,21.07,0,0,1,5.86-6.1,21.4,21.4,0,0,1,7.93-3.29,24.5,24.5,0,0,1,9.46,0,24.28,24.28,0,0,1,8.8,3.43,20.87,20.87,0,0,1,9.36,13.79A23.59,23.59,0,0,1,55.68,32.63ZM45,28.56a18.93,18.93,0,0,0-.84-5.84,12.33,12.33,0,0,0-2.41-4.39,10.43,10.43,0,0,0-3.86-2.76,13.27,13.27,0,0,0-5.19-1,13.44,13.44,0,0,0-5.23,1,10.39,10.39,0,0,0-3.87,2.76,12.34,12.34,0,0,0-2.42,4.39,18.93,18.93,0,0,0-.84,5.84,19,19,0,0,0,.84,5.86,12.39,12.39,0,0,0,2.42,4.4,10.23,10.23,0,0,0,3.87,2.74,13.62,13.62,0,0,0,5.23.95,13.45,13.45,0,0,0,5.19-.95,10.27,10.27,0,0,0,3.86-2.74,12.37,12.37,0,0,0,2.41-4.4A19,19,0,0,0,45,28.56Z"/><path class="cls-2" d="M69.63,16.21V36a5.43,5.43,0,0,0,1.05,3.57,3.79,3.79,0,0,0,3.09,1.26,6.61,6.61,0,0,0,2.86-.63,10.71,10.71,0,0,0,2.6-1.77V16.21h9.3V47.32H82.77a2.19,2.19,0,0,1-2.28-1.56L79.92,44a18,18,0,0,1-1.86,1.57A11.43,11.43,0,0,1,76,46.73a12.23,12.23,0,0,1-2.35.78,12.5,12.5,0,0,1-2.76.29,10.92,10.92,0,0,1-4.52-.89,9.26,9.26,0,0,1-3.31-2.47,10.79,10.79,0,0,1-2-3.75A15.51,15.51,0,0,1,60.33,36V16.21Z"/><path class="cls-3" d="M106.41,7.69A4.89,4.89,0,0,1,106,9.77a5.49,5.49,0,0,1-1.23,1.71,6,6,0,0,1-1.82,1.17,5.61,5.61,0,0,1-2.2.44,5.24,5.24,0,0,1-2.13-.44,6,6,0,0,1-1.76-1.17,5.4,5.4,0,0,1-1.2-1.71,5,5,0,0,1-.43-2.08,5.23,5.23,0,0,1,.43-2.13,5.53,5.53,0,0,1,1.2-1.74,5.64,5.64,0,0,1,1.76-1.17,5.4,5.4,0,0,1,2.13-.42,5.78,5.78,0,0,1,2.2.42,5.69,5.69,0,0,1,1.82,1.17A5.62,5.62,0,0,1,106,5.56,5.09,5.09,0,0,1,106.41,7.69Zm-1.08,8.52V47.32H96V16.21Z"/><path class="cls-4" d="M136.05,19.93a4.74,4.74,0,0,1-.36,1.83,6.67,6.67,0,0,1-.84,1.5l-13,17.16h13.89v6.9h-24.6V43.54a4.3,4.3,0,0,1,.31-1.43,6.67,6.67,0,0,1,.89-1.63l13.11-17.37H112v-6.9h24.06Z"/><path class="cls-5" d="M164.67,19.93a4.74,4.74,0,0,1-.36,1.83,6.67,6.67,0,0,1-.84,1.5l-13,17.16h13.89v6.9h-24.6V43.54a4.3,4.3,0,0,1,.31-1.43,6.67,6.67,0,0,1,.89-1.63l13.11-17.37H140.61v-6.9h24.06Z"/><path class="cls-6" d="M182.79,55.39a2.67,2.67,0,0,1-2.94,1.8h-7l6-12.6L166.47,16.21h8.22a2.62,2.62,0,0,1,1.68.48,2.58,2.58,0,0,1,.84,1.14l5.1,13.41A29.55,29.55,0,0,1,183.48,35q.3-1,.66-1.89t.69-1.89l4.62-13.35a2.32,2.32,0,0,1,.94-1.16,2.71,2.71,0,0,1,1.52-.46h7.5Z"/><path class="cls-7" d="M56.17,69.4a4.89,4.89,0,0,1-.45,2.08,5.49,5.49,0,0,1-1.23,1.71,6,6,0,0,1-1.81,1.17,5.66,5.66,0,0,1-2.21.44,5.24,5.24,0,0,1-2.13-.44,6.15,6.15,0,0,1-1.76-1.17,5.37,5.37,0,0,1-1.19-1.71A5,5,0,0,1,45,69.4a5.24,5.24,0,0,1,.44-2.13,5.5,5.5,0,0,1,1.19-1.74,5.76,5.76,0,0,1,1.76-1.17,5.4,5.4,0,0,1,2.13-.42,5.83,5.83,0,0,1,2.21.42,5.65,5.65,0,0,1,3,2.91A5.09,5.09,0,0,1,56.17,69.4Z"/><rect class="cls-8" x="9.57" y="42.83" width="33.08" height="12.76" transform="translate(-1.63 97.51) rotate(-122.18)"/></svg>