<svg id="Calque_1" data-name="Calque 1" xmlns="http://www.w3.org/2000/svg" xmlns:xlink="http://www.w3.org/1999/xlink" viewBox="0 0 203.95 78.94"><defs><style>.cls-1{fill:url(#Dégradé_sans_nom_14);}.cls-2{fill:url(#Dégradé_sans_nom_14-2);}.cls-3{fill:url(#Dégradé_sans_nom_14-3);}.cls-4{fill:url(#Dégradé_sans_nom_14-4);}</style><linearGradient id="Dégradé_sans_nom_14" x1="110.39" y1="35.65" x2="94.09" y2="7.43" gradientUnits="userSpaceOnUse"><stop offset="0" stop-color="#662483"/><stop offset="0.24" stop-color="#5f2583"/><stop offset="0.58" stop-color="#4d2883"/><stop offset="0.98" stop-color="#2e2e83"/><stop offset="1" stop-color="#2d2e83"/></linearGradient><linearGradient id="Dégradé_sans_nom_14-2" x1="76.34" y1="63.93" x2="76.22" y2="63.71" xlink:href="#Dégradé_sans_nom_14"/><linearGradient id="Dégradé_sans_nom_14-3" x1="127.78" y1="64.33" x2="127.56" y2="63.96" xlink:href="#Dégradé_sans_nom_14"/><linearGradient id="Dégradé_sans_nom_14-4" x1="111.79" y1="75.97" x2="90.6" y2="39.27" xlink:href="#Dégradé_sans_nom_14"/></defs><title>Plan de travail 1</title><path class="cls-1" d="M102,38.73c7.52,0,13.61-7.39,13.61-16.52S113.58,5.69,102,5.69s-13.6,7.39-13.6,16.52S94.46,38.73,102,38.73Z"/><path class="cls-2" d="M76.28,64c0-.55,0-.15,0,0Z"/><path class="cls-3" d="M127.67,64.4c0-.16,0-1.06,0,0Z"/><path class="cls-4" d="M127.64,63.3c-.25-15.9-2.33-20.43-18.22-23.3,0,0-2.23,2.85-7.45,2.85S94.52,40,94.52,40c-15.71,2.84-17.91,7.3-18.2,22.78,0,1.26,0,1.33,0,1.18v1.67s3.78,7.63,25.69,7.63,25.7-7.63,25.7-7.63V64.4A5.92,5.92,0,0,1,127.64,63.3Z"/></svg>