<?xml version="1.0" encoding="utf-8"?>
<!-- Generator: Adobe Illustrator 22.1.0, SVG Export Plug-In . SVG Version: 6.00 Build 0)  -->
<svg version="1.1" id="wave" xmlns="http://www.w3.org/2000/svg" xmlns:xlink="http://www.w3.org/1999/xlink" x="0px" y="0px"
	 viewBox="0 0 3672.1 571.4" style="enable-background:new 0 0 3672.1 571.4;" xml:space="preserve">
<style type="text/css">
	.st0{fill:url(#startwave1_3_);}
	.st1{fill:url(#startwave1_4_);}
</style>
<g>
	
		<linearGradient id="startwave1_3_" gradientUnits="userSpaceOnUse" x1="1837.3711" y1="675.0018" x2="1837.3711" y2="273.0135" gradientTransform="matrix(1 0 0 1 -1.271 -266.7018)">
		<stop  offset="0" style="stop-color:#F0522F"/>
		<stop  offset="1" style="stop-color:#FCB04F"/>
	</linearGradient>
	<path id="startwave1_1_" class="st0" d="M0.1,408.3H3672l0.1-164.4c0,0-470.9,36.8-926.1-141c-548.1-214-976-9-1036,14.3
		c-146.1,56.5-386.3,283.4-1118.7,103.4C173.6,85.8,0.1,147,0.1,147V408.3z"/>
	
		<linearGradient id="startwave1_4_" gradientUnits="userSpaceOnUse" x1="1837.821" y1="841.5018" x2="1837.821" y2="418.7615" gradientTransform="matrix(1 0 0 1 -1.271 -266.7018)">
		<stop  offset="0" style="stop-color:#F0522F"/>
		<stop  offset="1" style="stop-color:#FCB04F"/>
	</linearGradient>
	<path id="startwave1_2_" class="st1" d="M0.6,574.8l3671.9-1.3v-219c0,0-495,86-973.7-100.9c-576.4-225-1026.3-9.4-1089.5,15
		c-153.7,59.4-386,245.9-1156.2,56.6c-336-98.7-452.5-45-452.5-45L0.6,574.8L0.6,574.8z"/>
</g>
</svg>
